<svg viewBox="0 0 500 500" xmlns="http://www.w3.org/2000/svg">
  <!-- Left Sail -->
  <path d="M 120 10 C 160 180, 70 380, 80 430 C 180 380, 250 300, 290 220 C 240 150, 180 80, 120 10 Z" fill="#00BFFF"/>
  <!-- Right Sail -->
  <path d="M 210 60 C 300 130, 380 200, 430 280 C 440 295, 430 310, 420 300 C 370 320, 320 320, 290 320 C 320 250, 270 150, 210 60 Z" fill="#00BFFF"/>
  <!-- Top Wave -->
  <path d="M 90 420 C 200 380, 260 350, 360 355 C 280 400, 180 440, 70 490 C 75 460, 80 440, 90 420 Z" fill="#1E90FF"/>
  <!-- Bottom Wave -->
  <path d="M 10 480 C 180 420, 280 360, 480 295 C 380 370, 250 450, 30 500 C 20 495, 10 490, 10 480 Z" fill="#0096d2"/>
</svg>
